# Blender v2.79 (sub 0) OBJ File: ''
# www.blender.org
mtllib scavvermagazine.mtl
o Cube_Cube.001
v -0.590000 -0.020000 0.840000
v -0.590000 0.020000 0.840000
v -0.590000 -0.020000 -0.840000
v -0.590000 0.020000 -0.840000
v 0.708126 -0.020000 0.840000
v 0.708126 0.020000 0.840000
v 0.708126 -0.020000 -0.840000
v 0.708126 0.020000 -0.840000
vt 0.999900 0.999900
vt 0.000100 0.999900
vt 0.000100 0.000100
vt 0.999900 0.000100
vt 0.390286 1.003298
vt 0.390286 0.003471
vt 0.497718 0.003471
vt 0.497718 1.003298
vt 0.000095 0.000095
vt 0.503288 0.000095
vt 0.495686 1.003694
vt 0.000095 1.003694
vt -0.000381 0.343693
vt -0.000381 0.002933
vt 0.374492 0.002933
vt 0.374492 0.343693
vt 0.388680 0.008107
vt 0.388680 0.393216
vt 0.003572 0.393216
vt 0.003572 0.008107
vt 0.412577 0.002545
vt 0.412577 0.373708
vt 0.004259 0.373708
vt 0.004259 0.002546
vn 0.0000 1.0000 0.0000
vn -1.0000 0.0000 0.0000
vn 0.0000 -1.0000 0.0000
vn 0.0000 0.0000 -1.0000
vn 1.0000 0.0000 0.0000
vn 0.0000 0.0000 1.0000
usemtl None
s off
f 8/1/1 4/2/1 2/3/1 6/4/1
usemtl None_magazine_cover.jpg
f 1/5/2 2/6/2 4/7/2 3/8/2
f 3/9/3 7/10/3 5/11/3 1/12/3
usemtl None_18_paper-stack_lr-700x700.jpg
f 3/13/4 4/14/4 8/15/4 7/16/4
f 7/17/5 8/18/5 6/19/5 5/20/5
f 5/21/6 6/22/6 2/23/6 1/24/6
